<svg
	width="24"
	height="24"
	viewBox="0 0 24 24"
	fill="none"
	xmlns="http://www.w3.org/2000/svg"
>
	<g class="oi-archive">
		<path
			class="oi-box"
			d="M19 8H5C4.44772 8 4 8.44772 4 9V19C4 19.5523 4.44772 20 5 20H19C19.5523 20 20 19.5523 20 19V9C20 8.44772 19.5523 8 19 8Z"
			stroke="black"
			stroke-width="2"
			stroke-miterlimit="10"
			stroke-linecap="round"
			stroke-linejoin="round"
		/>
		<path
			class="oi-line"
			d="M15 12H9"
			stroke="black"
			stroke-width="2"
			stroke-miterlimit="10"
			stroke-linecap="round"
			stroke-linejoin="round"
		/>
		<path
			class="oi-box"
			d="M20 4H4C3.44772 4 3 4.44772 3 5V7C3 7.55228 3.44772 8 4 8H20C20.5523 8 21 7.55228 21 7V5C21 4.44772 20.5523 4 20 4Z"
			stroke="black"
			stroke-width="2"
			stroke-miterlimit="10"
			stroke-linecap="round"
			stroke-linejoin="round"
		/>
	</g>
</svg>