<svg
	width="24"
	height="24"
	viewBox="0 0 24 24"
	fill="none"
	xmlns="http://www.w3.org/2000/svg"
>
	<g class="oi-boat">
		<path
			class="oi-vector"
			d="M3 19L5.00742 20.2639C5.71102 20.7069 6.61532 20.6684 7.27871 20.1672L7.61786 19.9109C8.33127 19.3719 9.31579 19.3719 10.0292 19.9109L10.3683 20.1672C11.0317 20.6684 11.936 20.7069 12.6396 20.2639L13.5814 19.6709C14.2327 19.2609 15.0614 19.2609 15.7127 19.6709L16.7579 20.3291C17.4092 20.7391 18.2379 20.7391 18.8892 20.3291L21 19"
			stroke="black"
			stroke-width="2"
		/>
		<path
			class="oi-vector"
			d="M11.5 17V11M11.5 11L7.5 12.0667M11.5 11L15.5 12.0667M17 16L19 13L15.5 12.0667M6 16L4 13L7.5 12.0667M9.5 7H8.5C7.94772 7 7.5 7.44772 7.5 8V12.0667M9.5 7V5C9.5 4.44772 9.94772 4 10.5 4H12.5C13.0523 4 13.5 4.44772 13.5 5V7M9.5 7H13.5M13.5 7H14.5C15.0523 7 15.5 7.44772 15.5 8V12.0667"
			stroke="black"
			stroke-width="2"
			stroke-linecap="round"
		/>
	</g>
</svg>