<svg
	width="24"
	height="24"
	viewBox="0 0 24 24"
	fill="none"
	xmlns="http://www.w3.org/2000/svg"
>
	<g class="oi-cast">
		<path
			class="oi-vector"
			d="M3 15.5875C3.8648 15.759 4.65865 16.1739 5.28274 16.7807C5.90684 17.3874 6.33363 18.1592 6.51 19M3 12.0438C4.82771 12.2414 6.53185 13.0378 7.8322 14.302C9.13256 15.5663 9.95172 17.2231 10.155 19M3 8.5V6.75C3 6.28587 3.18964 5.84075 3.52721 5.51256C3.86477 5.18437 4.32261 5 4.8 5H19.2C19.6774 5 20.1352 5.18437 20.4728 5.51256C20.8104 5.84075 21 6.28587 21 6.75V17.25C21 17.7141 20.8104 18.1592 20.4728 18.4874C20.1352 18.8156 19.6774 19 19.2 19H13.8"
			stroke="black"
			stroke-width="2"
			stroke-linecap="round"
			stroke-linejoin="round"
		/>
		<path
			class="oi-mini-dot"
			d="M3 19H3.01"
			stroke="black"
			stroke-width="2"
			stroke-linecap="round"
			stroke-linejoin="round"
		/>
	</g>
</svg>