<svg
	width="24"
	height="24"
	viewBox="0 0 24 24"
	fill="none"
	xmlns="http://www.w3.org/2000/svg"
>
	<g class="oi-circle-check-fill">
		<path
			class="oi-fill"
			fill-rule="evenodd"
			clip-rule="evenodd"
			d="M12 22C16.9706 22 22 16.9706 22 12C22 7.02944 16.9706 2 12 2C7.02944 2 2 7.02944 2 12C2 16.9706 7.02944 22 12 22ZM16.7474 10.1644C17.1143 9.75158 17.0771 9.11951 16.6644 8.75259C16.2516 8.38567 15.6195 8.42285 15.2526 8.83564L10.6667 13.9948L8.74741 11.8356C8.38049 11.4229 7.74842 11.3857 7.33564 11.7526C6.92285 12.1195 6.88567 12.7516 7.25259 13.1644L9.91926 16.1644C10.109 16.3779 10.381 16.5 10.6667 16.5C10.9523 16.5 11.2243 16.3779 11.4141 16.1644L16.7474 10.1644Z"
			fill="black"
		/>
	</g>
</svg>