<svg
	width="24"
	height="24"
	viewBox="0 0 24 24"
	fill="none"
	xmlns="http://www.w3.org/2000/svg"
>
	<g class="oi-clock-fill">
		<path
			class="oi-fill"
			fill-rule="evenodd"
			clip-rule="evenodd"
			d="M11.9999 22C17.5228 22 21.9999 17.5228 21.9999 12C21.9999 6.47715 17.5228 2 11.9999 2C6.47709 2 1.99994 6.47715 1.99994 12C1.99994 17.5228 6.47709 22 11.9999 22ZM12.9999 7.20001C12.9999 6.64773 12.5522 6.20001 11.9999 6.20001C11.4477 6.20001 10.9999 6.64773 10.9999 7.20001L10.9999 11.6C10.9999 12.7046 11.8954 13.6 13 13.6L16.8 13.5999C17.3522 13.5999 17.7999 13.1522 17.7999 12.5999C17.7999 12.0476 17.3522 11.5999 16.7999 11.5999L12.9999 11.6L12.9999 7.20001Z"
			fill="black"
		/>
	</g>
</svg>