<svg
	width="24"
	height="24"
	viewBox="0 0 24 24"
	fill="none"
	xmlns="http://www.w3.org/2000/svg"
>
	<g class="oi-cloud-upload-alt">
		<path
			class="oi-incomplete-triangle"
			d="M16 16L12 12L8 16"
			stroke="black"
			stroke-width="2"
			stroke-linecap="round"
			stroke-linejoin="round"
		/>
		<path
			class="oi-line"
			d="M12.0003 21L12.0003 12"
			stroke="black"
			stroke-width="2"
			stroke-linecap="round"
			stroke-linejoin="round"
		/>
		<path
			class="oi-vector"
			d="M20.0703 18C20.8602 17.4332 21.4525 16.6244 21.7614 15.6909C22.0702 14.7573 22.0795 13.7476 21.7878 12.8084C21.4962 11.8691 20.9188 11.0491 20.1394 10.4673C19.3601 9.88555 18.4193 9.57234 17.4537 9.57311H16.3089C16.0356 8.48649 15.5243 7.47727 14.8135 6.62145C14.1027 5.76563 13.2108 5.08549 12.2051 4.63225C11.1994 4.17901 10.106 3.96447 9.00726 4.00479C7.90852 4.04511 6.83306 4.33923 5.86185 4.86501C4.89063 5.39079 4.04897 6.13453 3.40023 7.04025C2.75148 7.94596 2.31256 8.99003 2.1165 10.0939C1.92044 11.1977 1.97236 12.3326 2.26834 13.413C2.56432 14.4934 3.09665 15.4912 3.82526 16.3313"
			stroke="black"
			stroke-width="2"
			stroke-linecap="round"
			stroke-linejoin="round"
		/>
	</g>
</svg>