<svg
	width="24"
	height="24"
	viewBox="0 0 24 24"
	fill="none"
	xmlns="http://www.w3.org/2000/svg"
>
	<g class="oi-document-fill">
		<path
			class="oi-fill"
			fill-rule="evenodd"
			clip-rule="evenodd"
			d="M12.8 2H5.99988C5.46944 2 4.96074 2.21071 4.58566 2.58579C4.21059 2.96086 3.99988 3.46957 3.99988 4V20C3.99988 20.5304 4.21059 21.0391 4.58566 21.4142C4.96074 21.7893 5.46944 22 5.99988 22H17.9999C18.5303 22 19.039 21.7893 19.4141 21.4142C19.7892 21.0391 19.9999 20.5304 19.9999 20V8.80004H13.8C13.2477 8.80004 12.8 8.35233 12.8 7.80004V2ZM18.7999 6.80004L14.8 2.80008V6.80004H18.7999ZM8.00006 8.00006C7.44778 8.00006 7.00006 8.44778 7.00006 9.00006C7.00006 9.55235 7.44778 10.0001 8.00006 10.0001H9.00006H10.0001C10.5523 10.0001 11.0001 9.55235 11.0001 9.00006C11.0001 8.44778 10.5523 8.00006 10.0001 8.00006H9.00006H8.00006ZM7.00006 13.0001C7.00006 12.4478 7.44778 12.0001 8.00006 12.0001H16.0001C16.5523 12.0001 17.0001 12.4478 17.0001 13.0001C17.0001 13.5524 16.5523 14.0001 16.0001 14.0001H8.00006C7.44778 14.0001 7.00006 13.5524 7.00006 13.0001ZM7.00006 17C7.00006 16.4477 7.44778 16 8.00006 16H16.0001C16.5523 16 17.0001 16.4477 17.0001 17C17.0001 17.5523 16.5523 18 16.0001 18H8.00006C7.44778 18 7.00006 17.5523 7.00006 17Z"
			fill="black"
		/>
	</g>
</svg>