<svg
	width="24"
	height="24"
	viewBox="0 0 24 24"
	fill="none"
	xmlns="http://www.w3.org/2000/svg"
>
	<g class="oi-gift">
		<path
			class="oi-vector"
			d="M20.0001 12V22H4.00012V12"
			stroke="black"
			stroke-width="2"
			stroke-linecap="round"
			stroke-linejoin="round"
		/>
		<path
			class="oi-vector"
			d="M22.0004 7H2.00037V12H22.0004V7Z"
			stroke="black"
			stroke-width="2"
			stroke-linecap="round"
			stroke-linejoin="round"
		/>
		<path
			class="oi-line"
			d="M12.0001 22V7"
			stroke="black"
			stroke-width="2"
			stroke-linecap="round"
			stroke-linejoin="round"
		/>
		<path
			class="oi-vector"
			d="M12.0004 7H7.50037C6.83732 7 6.20144 6.73661 5.7326 6.26777C5.26376 5.79893 5.00037 5.16304 5.00037 4.5C5.00037 3.83696 5.26376 3.20107 5.7326 2.73223C6.20144 2.26339 6.83732 2 7.50037 2C11.0004 2 12.0004 7 12.0004 7Z"
			stroke="black"
			stroke-width="2"
			stroke-linecap="round"
			stroke-linejoin="round"
		/>
		<path
			class="oi-vector"
			d="M12.0001 7H16.5001C17.1632 7 17.799 6.73661 18.2679 6.26777C18.7367 5.79893 19.0001 5.16304 19.0001 4.5C19.0001 3.83696 18.7367 3.20107 18.2679 2.73223C17.799 2.26339 17.1632 2 16.5001 2C13.0001 2 12.0001 7 12.0001 7Z"
			stroke="black"
			stroke-width="2"
			stroke-linecap="round"
			stroke-linejoin="round"
		/>
	</g>
</svg>