<svg
	width="24"
	height="24"
	viewBox="0 0 24 24"
	fill="none"
	xmlns="http://www.w3.org/2000/svg"
>
	<g class="oi-minimize">
		<path
			class="oi-vector"
			d="M8.00011 3V6C8.00011 6.53043 7.78939 7.03914 7.41432 7.41421C7.03925 7.78929 6.53054 8 6.00011 8H3.00011M21.0001 8H18.0001C17.4697 8 16.961 7.78929 16.5859 7.41421C16.2108 7.03914 16.0001 6.53043 16.0001 6V3M16.0001 21V18C16.0001 17.4696 16.2108 16.9609 16.5859 16.5858C16.961 16.2107 17.4697 16 18.0001 16H21.0001M3.00011 16H6.00011C6.53054 16 7.03925 16.2107 7.41432 16.5858C7.78939 16.9609 8.00011 17.4696 8.00011 18V21"
			stroke="black"
			stroke-width="2"
			stroke-linecap="round"
			stroke-linejoin="round"
		/>
	</g>
</svg>