<svg
	width="24"
	height="24"
	viewBox="0 0 24 24"
	fill="none"
	xmlns="http://www.w3.org/2000/svg"
>
	<g class="oi-pie-chart-2-parts">
		<path
			class="oi-vector"
			d="M12 3.60002C10.3386 3.60002 8.71456 4.09268 7.33318 5.01568C5.95181 5.93868 4.87516 7.25058 4.23939 8.78548C3.60361 10.3204 3.43726 12.0093 3.76138 13.6388C4.08549 15.2682 4.88552 16.765 6.06028 17.9397C7.23504 19.1145 8.73178 19.9145 10.3612 20.2386C11.9907 20.5627 13.6796 20.3964 15.2145 19.7606C16.7494 19.1248 18.0613 18.0482 18.9843 16.6668C19.9073 15.2854 20.4 13.6614 20.4 12L12 12L12 3.60002Z"
			stroke="black"
			stroke-width="2"
		/>
		<path
			class="oi-vector"
			d="M20.4001 12C20.4001 10.8969 20.1828 9.80457 19.7607 8.78543C19.3385 7.7663 18.7198 6.84029 17.9398 6.06028C17.1598 5.28027 16.2338 4.66153 15.2146 4.23939C14.1955 3.81725 13.1032 3.59998 12.0001 3.59998L12.0001 12L20.4001 12Z"
			stroke="black"
			stroke-width="2"
		/>
	</g>
</svg>