<svg
	width="24"
	height="24"
	viewBox="0 0 24 24"
	fill="none"
	xmlns="http://www.w3.org/2000/svg"
>
	<g class="oi-settings" clip-path="url(#clip0_226_28237)">
		<path
			class="oi-vector"
			d="M10.287 4.13981C10.719 2.33896 13.2809 2.33896 13.713 4.13981V4.13981C13.9923 5.30379 15.3262 5.8563 16.3467 5.23072V5.23072C17.9256 4.26284 19.7372 6.07438 18.7693 7.65329V7.65329C18.1437 8.67382 18.6962 10.0077 19.8602 10.287V10.287C21.661 10.719 21.661 13.2809 19.8602 13.713V13.713C18.6962 13.9923 18.1437 15.3262 18.7693 16.3467V16.3467C19.7372 17.9256 17.9256 19.7372 16.3467 18.7693V18.7693C15.3262 18.1437 13.9923 18.6962 13.713 19.8602V19.8602C13.2809 21.661 10.719 21.661 10.287 19.8602V19.8602C10.0077 18.6962 8.67382 18.1437 7.65329 18.7693V18.7693C6.07438 19.7372 4.26284 17.9256 5.23072 16.3467V16.3467C5.8563 15.3262 5.30379 13.9923 4.13981 13.713V13.713C2.33896 13.2809 2.33896 10.719 4.13981 10.287V10.287C5.30379 10.0077 5.8563 8.67382 5.23072 7.65329V7.65329C4.26284 6.07438 6.07438 4.26284 7.65329 5.23072V5.23072C8.67382 5.8563 10.0077 5.30379 10.287 4.13981V4.13981Z"
			stroke="black"
			stroke-width="2"
		/>
		<path
			class="oi-ellipse"
			d="M15 12C15 12.7956 14.6839 13.5587 14.1213 14.1213C13.5587 14.6839 12.7956 15 12 15C11.2044 15 10.4413 14.6839 9.87868 14.1213C9.31607 13.5587 9 12.7956 9 12C9 11.2044 9.31607 10.4413 9.87868 9.87868C10.4413 9.31607 11.2044 9 12 9C12.7956 9 13.5587 9.31607 14.1213 9.87868C14.6839 10.4413 15 11.2044 15 12V12Z"
			stroke="black"
			stroke-width="2"
			stroke-linecap="round"
			stroke-linejoin="round"
		/>
	</g>
	<defs>
		<clipPath class="clip0_226_28237">
			<rect width="24" height="24" fill="white" />
		</clipPath>
	</defs>
</svg>