<svg
	width="24"
	height="24"
	viewBox="0 0 24 24"
	fill="none"
	xmlns="http://www.w3.org/2000/svg"
>
	<g class="oi-store">
		<path
			class="oi-vector"
			d="M4.5 11V20C4.5 20.5523 4.94772 21 5.5 21H18.5C19.0523 21 19.5 20.5523 19.5 20V11"
			stroke="black"
			stroke-width="2"
			stroke-miterlimit="10"
			stroke-linecap="round"
			stroke-linejoin="round"
		/>
		<path
			class="oi-vector"
			d="M14 15H10V21H14V15Z"
			stroke="black"
			stroke-width="2"
			stroke-miterlimit="10"
			stroke-linecap="round"
			stroke-linejoin="round"
		/>
		<path
			class="oi-vector"
			d="M12 11C13.6569 11 15 9.65685 15 8C15 9.65685 16.3431 11 18 11C19.6569 11 21 9.65685 21 8L18 3H6L3 8C3 9.65685 4.34315 11 6 11C7.65685 11 9 9.65685 9 8C9 9.65685 10.3431 11 12 11Z"
			stroke="black"
			stroke-width="2"
			stroke-miterlimit="10"
			stroke-linecap="round"
			stroke-linejoin="round"
		/>
	</g>
</svg>