<svg
	width="24"
	height="24"
	viewBox="0 0 24 24"
	fill="none"
	xmlns="http://www.w3.org/2000/svg"
>
	<g class="oi-warning-triangle-fill">
		<path
			class="oi-fill"
			fill-rule="evenodd"
			clip-rule="evenodd"
			d="M12.7586 4.08137C12.3837 3.36903 11.3637 3.36903 10.9888 4.08137L3.17144 18.9343C2.82096 19.6002 3.30385 20.4 4.05636 20.4H19.691C20.4435 20.4 20.9264 19.6002 20.5759 18.9343L12.7586 4.08137ZM11.7 14.3421C11.1477 14.3421 10.7 13.8944 10.7 13.3421V10.5C10.7 9.94774 11.1477 9.50003 11.7 9.50003C12.2523 9.50003 12.7 9.94774 12.7 10.5V13.3421C12.7 13.8944 12.2523 14.3421 11.7 14.3421ZM10.7 17.1315C10.7 16.5792 11.1477 16.1315 11.7 16.1315H11.7088C12.2611 16.1315 12.7088 16.5792 12.7088 17.1315C12.7088 17.6838 12.2611 18.1315 11.7088 18.1315H11.7C11.1477 18.1315 10.7 17.6838 10.7 17.1315Z"
			fill="black"
		/>
	</g>
</svg>