<svg
	width="24"
	height="24"
	viewBox="0 0 24 24"
	fill="none"
	xmlns="http://www.w3.org/2000/svg"
>
	<g class="oi-wind">
		<path
			class="oi-vector"
			d="M3 12H18C19.6569 12 21 10.6569 21 9V9C21 7.34315 19.6569 6 18 6V6"
			stroke="black"
			stroke-width="2"
			stroke-miterlimit="10"
			stroke-linecap="round"
			stroke-linejoin="round"
		/>
		<path
			class="oi-vector"
			d="M5.00002 9H10.5C11.3284 9 12 8.32843 12 7.5V7.5C12 6.67157 11.3284 6 10.5 6V6"
			stroke="black"
			stroke-width="2"
			stroke-miterlimit="10"
			stroke-linecap="round"
			stroke-linejoin="round"
		/>
		<path
			class="oi-vector"
			d="M7 15H16C17.1046 15 18 15.8954 18 17V17C18 18.1046 17.1046 19 16 19V19"
			stroke="black"
			stroke-width="2"
			stroke-miterlimit="10"
			stroke-linecap="round"
			stroke-linejoin="round"
		/>
		<path
			class="oi-vector"
			d="M18 12C19.6569 12 21 10.6569 21 9C21 7.34315 19.6569 6 18 6C17.1115 6 16.3132 6.38625 15.7639 7"
			stroke="black"
			stroke-width="2"
			stroke-miterlimit="10"
			stroke-linecap="round"
			stroke-linejoin="round"
		/>
		<path
			class="oi-vector"
			d="M10.5 9C11.3284 9 12 8.32843 12 7.5C12 6.67157 11.3284 6 10.5 6C10.0558 6 9.65663 6.19313 9.38197 6.5"
			stroke="black"
			stroke-width="2"
			stroke-miterlimit="10"
			stroke-linecap="round"
			stroke-linejoin="round"
		/>
		<path
			class="oi-vector"
			d="M16 15C17.1046 15 18 15.8954 18 17C18 18.1046 17.1046 19 16 19C15.4027 19 14.8665 18.7381 14.5 18.3229"
			stroke="black"
			stroke-width="2"
			stroke-miterlimit="10"
			stroke-linecap="round"
			stroke-linejoin="round"
		/>
	</g>
</svg>